<svg width="355" height="148" viewBox="0 0 355 148" fill="none" xmlns="http://www.w3.org/2000/svg">
<path d="M127.164 127.417C127.733 126.674 128.483 126.058 129.415 125.568C130.347 125.063 131.366 124.81 132.472 124.81C133.483 124.81 134.375 125.023 135.149 125.45C135.939 125.861 136.547 126.461 136.974 127.251C137.4 128.025 137.613 128.941 137.613 129.999C137.613 130.458 137.566 130.947 137.471 131.469C137.234 132.78 136.753 133.949 136.026 134.975C135.315 136.002 134.438 136.8 133.396 137.369C132.369 137.937 131.279 138.222 130.126 138.222C129.02 138.222 128.088 137.977 127.33 137.487C126.587 136.982 126.05 136.358 125.718 135.615L124.226 144.169H122.069L125.434 125.023H127.59L127.164 127.417ZM135.268 131.469C135.331 131.137 135.362 130.773 135.362 130.379C135.362 129.225 135.023 128.325 134.344 127.677C133.664 127.014 132.788 126.682 131.713 126.682C130.923 126.682 130.157 126.88 129.415 127.274C128.672 127.654 128.033 128.214 127.496 128.957C126.974 129.684 126.627 130.529 126.453 131.492C126.39 131.824 126.358 132.187 126.358 132.582C126.358 133.735 126.698 134.652 127.377 135.331C128.072 135.994 128.949 136.326 130.007 136.326C130.813 136.326 131.579 136.137 132.306 135.757C133.048 135.362 133.68 134.802 134.201 134.075C134.738 133.333 135.094 132.464 135.268 131.469ZM139.48 131.469C139.717 130.142 140.191 128.981 140.902 127.985C141.629 126.974 142.505 126.192 143.532 125.64C144.575 125.087 145.68 124.81 146.849 124.81C147.987 124.81 148.927 125.055 149.669 125.545C150.412 126.034 150.925 126.651 151.209 127.393L151.636 125.023H153.816L151.517 138.008H149.337L149.788 135.592C149.219 136.35 148.469 136.982 147.537 137.487C146.605 137.977 145.578 138.222 144.456 138.222C143.445 138.222 142.553 138.008 141.779 137.582C141.005 137.14 140.404 136.516 139.978 135.71C139.551 134.904 139.338 133.972 139.338 132.914C139.338 132.44 139.385 131.958 139.48 131.469ZM150.499 131.492C150.562 131.161 150.593 130.805 150.593 130.426C150.593 129.273 150.246 128.364 149.551 127.701C148.871 127.022 148.003 126.682 146.944 126.682C146.139 126.682 145.365 126.872 144.622 127.251C143.895 127.63 143.271 128.183 142.75 128.909C142.229 129.636 141.881 130.489 141.708 131.469C141.644 131.8 141.613 132.164 141.613 132.559C141.613 133.728 141.952 134.652 142.632 135.331C143.311 135.994 144.18 136.326 145.238 136.326C146.044 136.326 146.81 136.137 147.537 135.757C148.279 135.362 148.911 134.802 149.432 134.075C149.969 133.333 150.325 132.472 150.499 131.492ZM162.862 124.81C163.984 124.81 164.924 125.055 165.682 125.545C166.44 126.034 166.954 126.651 167.222 127.393L167.649 125.023H169.829L167.483 138.293C167.278 139.478 166.835 140.528 166.156 141.444C165.492 142.376 164.647 143.103 163.621 143.624C162.594 144.146 161.456 144.406 160.208 144.406C158.502 144.406 157.152 143.995 156.157 143.174C155.161 142.368 154.68 141.278 154.711 139.904H156.867C156.962 140.694 157.333 141.326 157.981 141.8C158.645 142.289 159.498 142.534 160.54 142.534C161.725 142.534 162.76 142.163 163.644 141.421C164.529 140.678 165.09 139.636 165.327 138.293L165.801 135.568C165.232 136.326 164.481 136.958 163.549 137.463C162.633 137.969 161.614 138.222 160.493 138.222C159.482 138.222 158.589 138.008 157.815 137.582C157.041 137.14 156.433 136.516 155.991 135.71C155.564 134.904 155.351 133.972 155.351 132.914C155.351 132.44 155.398 131.958 155.493 131.469C155.73 130.142 156.204 128.981 156.915 127.985C157.641 126.974 158.518 126.192 159.545 125.64C160.588 125.087 161.693 124.81 162.862 124.81ZM166.511 131.492C166.575 131.161 166.606 130.805 166.606 130.426C166.606 129.273 166.259 128.364 165.564 127.701C164.884 127.022 164.015 126.682 162.957 126.682C162.151 126.682 161.377 126.872 160.635 127.251C159.908 127.63 159.284 128.183 158.763 128.909C158.242 129.636 157.894 130.489 157.72 131.469C157.657 131.8 157.626 132.164 157.626 132.559C157.626 133.728 157.965 134.652 158.645 135.331C159.324 135.994 160.193 136.326 161.251 136.326C162.057 136.326 162.823 136.137 163.549 135.757C164.292 135.362 164.924 134.802 165.445 134.075C165.982 133.333 166.338 132.472 166.511 131.492ZM171.506 131.469C171.743 130.142 172.217 128.981 172.928 127.985C173.654 126.974 174.531 126.192 175.558 125.64C176.6 125.087 177.706 124.81 178.875 124.81C180.013 124.81 180.952 125.055 181.695 125.545C182.437 126.034 182.951 126.651 183.235 127.393L183.662 125.023H185.842L183.543 138.008H181.363L181.813 135.592C181.245 136.35 180.494 136.982 179.562 137.487C178.63 137.977 177.604 138.222 176.482 138.222C175.471 138.222 174.578 138.008 173.804 137.582C173.03 137.14 172.43 136.516 172.004 135.71C171.577 134.904 171.364 133.972 171.364 132.914C171.364 132.44 171.411 131.958 171.506 131.469ZM182.524 131.492C182.587 131.161 182.619 130.805 182.619 130.426C182.619 129.273 182.272 128.364 181.576 127.701C180.897 127.022 180.028 126.682 178.97 126.682C178.164 126.682 177.39 126.872 176.648 127.251C175.921 127.63 175.297 128.183 174.776 128.909C174.255 129.636 173.907 130.489 173.733 131.469C173.67 131.8 173.639 132.164 173.639 132.559C173.639 133.728 173.978 134.652 174.657 135.331C175.337 135.994 176.205 136.326 177.264 136.326C178.07 136.326 178.836 136.137 179.562 135.757C180.305 135.362 180.937 134.802 181.458 134.075C181.995 133.333 182.35 132.472 182.524 131.492ZM194.363 131.445C194.6 130.086 195.082 128.902 195.809 127.891C196.535 126.864 197.436 126.074 198.51 125.521C199.6 124.952 200.777 124.668 202.041 124.668C203.668 124.668 204.939 125.071 205.855 125.876C206.787 126.682 207.309 127.827 207.419 129.312H203.841C203.747 128.744 203.502 128.301 203.107 127.985C202.712 127.654 202.183 127.488 201.519 127.488C200.571 127.488 199.758 127.835 199.079 128.53C198.415 129.21 197.973 130.181 197.752 131.445C197.673 131.887 197.633 132.266 197.633 132.582C197.633 133.483 197.854 134.178 198.297 134.667C198.739 135.141 199.355 135.378 200.145 135.378C201.472 135.378 202.451 134.778 203.083 133.577H206.661C206.045 134.999 205.121 136.129 203.889 136.966C202.672 137.803 201.266 138.222 199.671 138.222C198.012 138.222 196.685 137.756 195.69 136.824C194.711 135.876 194.221 134.596 194.221 132.985C194.221 132.495 194.268 131.982 194.363 131.445ZM213.546 127.203C214.115 126.414 214.778 125.797 215.536 125.355C216.295 124.913 217.116 124.692 218.001 124.692L217.385 128.175H216.508C215.529 128.175 214.739 128.388 214.138 128.815C213.554 129.241 213.127 129.968 212.859 130.995L211.627 138.008H208.286L210.608 124.881H213.949L213.546 127.203ZM225.969 124.668C227.644 124.668 228.971 125.134 229.95 126.066C230.93 126.982 231.419 128.222 231.419 129.786C231.419 130.292 231.38 130.742 231.301 131.137C231.206 131.611 231.103 132.021 230.993 132.369H221.396C221.38 132.48 221.373 132.638 221.373 132.843C221.373 133.664 221.61 134.312 222.083 134.786C222.573 135.244 223.213 135.473 224.003 135.473C224.666 135.473 225.235 135.331 225.709 135.047C226.199 134.746 226.593 134.359 226.894 133.885H230.472C229.887 135.149 228.979 136.192 227.747 137.013C226.53 137.819 225.148 138.222 223.6 138.222C221.925 138.222 220.583 137.748 219.572 136.8C218.561 135.852 218.055 134.565 218.055 132.938C218.055 132.464 218.103 131.966 218.197 131.445C218.434 130.086 218.916 128.894 219.643 127.867C220.385 126.84 221.301 126.05 222.391 125.497C223.481 124.944 224.674 124.668 225.969 124.668ZM228.007 130.355C228.039 130.102 228.055 129.92 228.055 129.81C228.055 129.052 227.81 128.459 227.32 128.033C226.83 127.606 226.191 127.393 225.401 127.393C224.564 127.393 223.813 127.662 223.15 128.199C222.486 128.72 222.02 129.439 221.752 130.355H228.007ZM232.822 131.445C233.059 130.086 233.541 128.902 234.267 127.891C234.994 126.864 235.894 126.074 236.969 125.521C238.059 124.952 239.235 124.668 240.499 124.668C242.126 124.668 243.398 125.071 244.314 125.876C245.246 126.682 245.767 127.827 245.878 129.312H242.3C242.205 128.744 241.96 128.301 241.565 127.985C241.17 127.654 240.641 127.488 239.978 127.488C239.03 127.488 238.216 127.835 237.537 128.53C236.874 129.21 236.431 130.181 236.21 131.445C236.131 131.887 236.092 132.266 236.092 132.582C236.092 133.483 236.313 134.178 236.755 134.667C237.198 135.141 237.814 135.378 238.604 135.378C239.93 135.378 240.91 134.778 241.542 133.577H245.12C244.504 134.999 243.58 136.129 242.347 136.966C241.131 137.803 239.725 138.222 238.13 138.222C236.471 138.222 235.144 137.756 234.149 136.824C233.169 135.876 232.68 134.596 232.68 132.985C232.68 132.495 232.727 131.982 232.822 131.445ZM254.848 124.668C256.523 124.668 257.85 125.134 258.829 126.066C259.808 126.982 260.298 128.222 260.298 129.786C260.298 130.292 260.259 130.742 260.18 131.137C260.085 131.611 259.982 132.021 259.872 132.369H250.275C250.259 132.48 250.251 132.638 250.251 132.843C250.251 133.664 250.488 134.312 250.962 134.786C251.452 135.244 252.092 135.473 252.881 135.473C253.545 135.473 254.114 135.331 254.587 135.047C255.077 134.746 255.472 134.359 255.772 133.885H259.35C258.766 135.149 257.857 136.192 256.625 137.013C255.409 137.819 254.027 138.222 252.479 138.222C250.804 138.222 249.461 137.748 248.45 136.8C247.439 135.852 246.934 134.565 246.934 132.938C246.934 132.464 246.981 131.966 247.076 131.445C247.313 130.086 247.795 128.894 248.521 127.867C249.264 126.84 250.18 126.05 251.27 125.497C252.36 124.944 253.553 124.668 254.848 124.668ZM256.886 130.355C256.918 130.102 256.933 129.92 256.933 129.81C256.933 129.052 256.688 128.459 256.199 128.033C255.709 127.606 255.069 127.393 254.279 127.393C253.442 127.393 252.692 127.662 252.028 128.199C251.365 128.72 250.899 129.439 250.63 130.355H256.886ZM266.629 127.203C267.198 126.414 267.861 125.797 268.62 125.355C269.378 124.913 270.199 124.692 271.084 124.692L270.468 128.175H269.591C268.612 128.175 267.822 128.388 267.222 128.815C266.637 129.241 266.211 129.968 265.942 130.995L264.71 138.008H261.369L263.691 124.881H267.032L266.629 127.203ZM282.058 122.915C281.695 122.915 281.395 122.804 281.158 122.583C280.937 122.362 280.826 122.069 280.826 121.706C280.826 121.232 281 120.829 281.347 120.498C281.695 120.15 282.098 119.976 282.556 119.976C282.919 119.976 283.212 120.087 283.433 120.308C283.654 120.529 283.764 120.821 283.764 121.185C283.764 121.659 283.591 122.069 283.243 122.417C282.896 122.749 282.501 122.915 282.058 122.915ZM279.949 140.828C279.76 141.981 279.325 142.827 278.646 143.364C277.967 143.901 277.067 144.169 275.945 144.169H274.665L274.997 142.345H275.898C276.498 142.345 276.94 142.226 277.224 141.989C277.509 141.752 277.698 141.35 277.793 140.781L280.589 125.023H282.745L279.949 140.828ZM297.912 125.023L295.613 138.008H293.457L293.789 136.113C293.267 136.776 292.604 137.29 291.798 137.653C290.993 138.016 290.155 138.198 289.287 138.198C287.928 138.198 286.838 137.835 286.017 137.108C285.211 136.366 284.808 135.307 284.808 133.933C284.808 133.585 284.848 133.151 284.927 132.63L286.277 125.023H288.41L287.13 132.345C287.067 132.677 287.035 133.025 287.035 133.388C287.035 134.351 287.296 135.086 287.817 135.592C288.355 136.081 289.097 136.326 290.045 136.326C291.182 136.326 292.146 135.971 292.936 135.26C293.741 134.549 294.255 133.514 294.476 132.156V132.227L295.755 125.023H297.912ZM307.926 124.786C309.269 124.786 310.343 125.15 311.149 125.876C311.955 126.587 312.357 127.63 312.357 129.004C312.357 129.51 312.318 129.96 312.239 130.355L310.888 138.008H308.756L310.059 130.663C310.122 130.331 310.154 129.984 310.154 129.62C310.154 128.657 309.885 127.922 309.348 127.417C308.827 126.911 308.092 126.658 307.144 126.658C306.007 126.658 305.036 127.014 304.23 127.725C303.44 128.436 302.927 129.47 302.69 130.829V130.781L301.41 138.008H299.254L301.552 125.023H303.709L303.377 126.895C303.914 126.216 304.585 125.695 305.391 125.331C306.197 124.968 307.042 124.786 307.926 124.786ZM317.681 134.454C317.633 134.691 317.609 134.896 317.609 135.07C317.609 135.465 317.728 135.75 317.965 135.923C318.218 136.097 318.62 136.184 319.173 136.184H320.761L320.429 138.008H318.486C317.459 138.008 316.685 137.811 316.164 137.416C315.659 137.021 315.406 136.373 315.406 135.473C315.406 135.126 315.437 134.786 315.501 134.454L316.851 126.801H315.193L315.501 125.023H317.183L317.752 121.753H319.932L319.363 125.023H322.728L322.42 126.801H319.031L317.681 134.454ZM328.752 138.222C327.662 138.222 326.699 138.001 325.862 137.558C325.04 137.1 324.4 136.468 323.942 135.663C323.484 134.841 323.255 133.893 323.255 132.819C323.255 131.35 323.595 130.007 324.274 128.791C324.953 127.559 325.885 126.587 327.07 125.876C328.271 125.166 329.605 124.81 331.075 124.81C332.165 124.81 333.128 125.039 333.965 125.497C334.818 125.94 335.474 126.572 335.932 127.393C336.406 128.199 336.643 129.146 336.643 130.236C336.643 131.706 336.295 133.048 335.6 134.265C334.905 135.481 333.957 136.445 332.757 137.155C331.556 137.866 330.221 138.222 328.752 138.222ZM329.013 136.397C330.04 136.397 330.964 136.121 331.785 135.568C332.607 134.999 333.247 134.257 333.705 133.34C334.179 132.408 334.416 131.413 334.416 130.355C334.416 129.154 334.068 128.238 333.373 127.606C332.678 126.959 331.809 126.635 330.766 126.635C329.74 126.635 328.823 126.919 328.018 127.488C327.212 128.041 326.588 128.783 326.146 129.715C325.704 130.647 325.482 131.65 325.482 132.724C325.482 133.893 325.814 134.802 326.478 135.449C327.141 136.081 327.986 136.397 329.013 136.397ZM342.772 138.222C341.413 138.222 340.299 137.898 339.431 137.25C338.562 136.603 338.127 135.734 338.127 134.644C338.127 134.438 338.135 134.288 338.151 134.194H340.26C340.197 134.873 340.394 135.426 340.852 135.852C341.326 136.279 342.006 136.492 342.89 136.492C343.775 136.492 344.486 136.326 345.023 135.994C345.576 135.647 345.852 135.165 345.852 134.549C345.852 134.028 345.631 133.617 345.189 133.317C344.746 133.017 344.067 132.693 343.151 132.345C342.345 132.045 341.682 131.761 341.16 131.492C340.639 131.224 340.197 130.852 339.833 130.379C339.47 129.889 339.288 129.273 339.288 128.53C339.288 127.804 339.494 127.156 339.905 126.587C340.331 126.019 340.916 125.584 341.658 125.284C342.416 124.968 343.277 124.81 344.241 124.81C345.568 124.81 346.658 125.142 347.511 125.805C348.364 126.469 348.79 127.338 348.79 128.412C348.79 128.617 348.782 128.775 348.767 128.886H346.705L346.729 128.601C346.729 127.97 346.484 127.472 345.994 127.109C345.52 126.729 344.888 126.54 344.099 126.54C343.325 126.54 342.685 126.714 342.179 127.061C341.69 127.409 341.445 127.875 341.445 128.459C341.445 129.012 341.674 129.447 342.132 129.762C342.59 130.078 343.301 130.426 344.264 130.805C345.07 131.121 345.718 131.413 346.208 131.682C346.697 131.935 347.116 132.29 347.463 132.748C347.811 133.206 347.985 133.783 347.985 134.478C347.985 135.236 347.756 135.9 347.297 136.468C346.855 137.037 346.239 137.471 345.449 137.772C344.659 138.072 343.767 138.222 342.772 138.222Z" fill="#1D1D1D"/>
<path d="M58.8447 60.1921C58.7327 60.7368 58.6207 61.287 58.5088 61.8317C55.7041 62.2985 52.8882 62.6098 50.0723 62.7821C53.0617 61.9762 55.9896 61.1258 58.8447 60.1921Z" fill="#FF6720"/>
<path d="M121.572 6.64124C113.545 28.7061 97.0187 48.6256 74.7154 57.3793C74.7154 57.3793 75.6111 53.0052 75.6167 53.0052C93.7214 42.7009 106.077 24.2487 111.07 4.45143C112.834 3.49547 117.648 0.766541 117.648 0.766541C117.648 0.766541 120.19 4.51256 121.572 6.64124Z" fill="#FF6720"/>
<path d="M83.585 14.2224C83.7474 13.4221 83.9993 12.9219 84.9118 12.8552C88.8193 12.5495 92.7213 11.9215 96.6176 11.9548C101.432 11.9882 104.617 15.3618 105.244 20.4751C107.724 15.334 109.673 9.95953 111.067 4.45165C110.999 4.40163 110.932 4.35717 110.865 4.3127C107.019 1.70605 102.625 1.00575 98.1124 0.816786C88.8921 0.416618 79.963 2.19514 71.1402 4.61283C70.67 4.74622 70.1269 5.45763 70.015 5.98563C69.2368 9.75388 55.4484 76.8266 55.4484 76.8266H65.7659C68.6714 76.8266 71.1626 74.6034 71.7504 71.7467C71.756 71.7578 82.9132 17.5183 83.585 14.2224Z" fill="black"/>
<path d="M118.54 14.0109C110.322 31.7906 96.522 47.4139 78.6077 55.7174C107.623 63.9487 126.719 35.5978 118.54 14.0109Z" fill="black"/>
<path d="M51.852 28.156C30.7803 7.94193 -5.1434 31.0128 0.617161 58.5021C4.20002 75.6038 22.8421 79.3998 37.9292 75.3648C47.5022 72.8081 46.3601 63.5876 46.3601 63.5876C34.352 66.3443 11.5001 63.8655 13.3755 54.7561C22.6125 57.3294 36.692 57.9408 46.5729 52.8998C59.4656 46.3192 57.2655 34.1919 51.852 28.156ZM43.018 39.6775C39.799 46.2747 21.4033 46.2192 14.7806 44.2906C18.9345 34.9311 29.8566 29.3398 39.8718 33.3915C42.8949 34.6198 44.2384 37.1542 43.018 39.6775Z" fill="black"/>
<path d="M183.113 24.7212C174.189 21.8144 163.485 20.4805 155.648 20.4805C134.906 20.4805 121.851 39.0161 122.462 55.2785C122.697 61.52 124.807 75.6871 143.802 77.3156C149.076 77.7658 154.108 77.0933 158.514 73.8586C158.548 73.8308 158.856 73.5584 158.783 73.9475C158.626 74.8534 158.273 76.8432 158.273 76.8432C158.273 76.8432 168.177 76.8432 172.874 76.8432C173.758 76.8432 173.881 76.2373 174.01 75.6204C177.386 59.2246 180.784 42.8622 184.12 26.4553C184.333 25.4215 184.126 25.0436 183.113 24.7212ZM167.018 34.492C165.238 42.9456 163.513 51.4102 161.716 59.8693C161.56 60.5974 161.179 61.2588 160.619 61.7535C156.353 65.5217 151.382 66.7611 145.829 65.4939C135.181 63.0651 136.927 48.0755 140.656 40.8447C144.054 34.2641 151.735 30.5459 159.555 31.5519C167.382 32.5523 167.219 33.5083 167.018 34.492Z" fill="black"/>
<path d="M354.106 40.2611C353.014 27.3223 342.724 20.4805 330.375 20.4805C304.477 20.4805 295.923 41.9618 296.713 56.8903C297.468 71.2241 310.238 77.8992 323.103 76.7042C335.055 75.9984 344.034 70.5794 349.588 59.9638C352.801 53.8112 354.884 47.3252 354.106 40.2611ZM318.389 64.5713C306.991 62.2426 310.854 47.2752 313.233 42.8622C318.977 32.2021 326.803 31.713 331.254 32.4133C337.132 33.3304 340.468 37.4988 340.138 44.5407C339.64 55.2007 331.651 67.278 318.389 64.5713Z" fill="black"/>
<path d="M180.929 100.976L182.861 91.5717C183.152 90.4713 184.199 89.6876 185.346 89.6543C191.135 89.4931 193.117 88.4927 196.011 85.3691C198.222 82.5791 199.896 80.3392 201.755 77.7604C202.001 77.4213 202.023 76.8155 201.934 76.3709C198.799 60.5698 190.889 20.4807 190.889 20.4807C190.889 20.4807 205.31 20.3529 206.216 26.0997C207.958 37.1044 212.078 59.3526 212.274 60.2308C212.783 59.3582 226.269 36.3707 232.578 25.3494C235.674 19.9416 247.47 20.4807 251.366 20.4807C239.739 39.7721 217.155 77.1823 213.634 82.9959C204.487 98.08 196.436 101.092 188.006 100.987C185.71 100.959 180.929 100.976 180.929 100.976Z" fill="black"/>
<path d="M287.778 61.2978C286.96 65.2605 285.477 72.4691 285.427 72.7248C285.343 73.1472 285.163 73.614 284.598 73.8252C276.811 76.7154 268.498 78.077 260.934 75.4148C236.459 66.8112 243.031 27.767 268.593 21.5532C281.144 18.502 293.662 22.9205 294.272 23.1095C294.983 23.3318 295.425 24.0432 295.279 24.7657C294.837 26.9388 293.432 33.8195 293.37 34.0696C286.289 31.7964 278.849 30.1513 271.616 32.6746C257.24 37.6989 254.116 62.187 268.414 65.0549C275.266 66.4332 281.536 64.0211 287.778 61.2978Z" fill="black"/>
</svg>
