<svg width="355" height="147" viewBox="0 0 355 147" fill="none" xmlns="http://www.w3.org/2000/svg">
<path d="M127.164 126.656C127.733 125.914 128.483 125.298 129.415 124.808C130.347 124.303 131.366 124.05 132.472 124.05C133.483 124.05 134.375 124.263 135.149 124.69C135.939 125.1 136.547 125.701 136.974 126.49C137.4 127.264 137.613 128.181 137.613 129.239C137.613 129.697 137.566 130.187 137.471 130.708C137.234 132.019 136.753 133.188 136.026 134.215C135.315 135.242 134.438 136.04 133.396 136.608C132.369 137.177 131.279 137.461 130.126 137.461C129.02 137.461 128.088 137.216 127.33 136.727C126.587 136.221 126.05 135.597 125.718 134.855L124.226 143.409H122.069L125.434 124.263H127.59L127.164 126.656ZM135.268 130.708C135.331 130.376 135.362 130.013 135.362 129.618C135.362 128.465 135.023 127.565 134.344 126.917C133.664 126.253 132.788 125.922 131.713 125.922C130.923 125.922 130.157 126.119 129.415 126.514C128.672 126.893 128.033 127.454 127.496 128.196C126.974 128.923 126.627 129.768 126.453 130.732C126.39 131.064 126.358 131.427 126.358 131.822C126.358 132.975 126.698 133.891 127.377 134.57C128.072 135.234 128.949 135.566 130.007 135.566C130.813 135.566 131.579 135.376 132.306 134.997C133.048 134.602 133.68 134.041 134.201 133.315C134.738 132.572 135.094 131.703 135.268 130.708ZM139.48 130.708C139.717 129.381 140.191 128.22 140.902 127.225C141.629 126.214 142.505 125.432 143.532 124.879C144.575 124.326 145.68 124.05 146.849 124.05C147.987 124.05 148.927 124.295 149.669 124.784C150.412 125.274 150.925 125.89 151.209 126.633L151.636 124.263H153.816L151.517 137.248H149.337L149.788 134.831C149.219 135.589 148.469 136.221 147.537 136.727C146.605 137.216 145.578 137.461 144.456 137.461C143.445 137.461 142.553 137.248 141.779 136.822C141.005 136.379 140.404 135.755 139.978 134.95C139.551 134.144 139.338 133.212 139.338 132.154C139.338 131.68 139.385 131.198 139.48 130.708ZM150.499 130.732C150.562 130.4 150.593 130.045 150.593 129.666C150.593 128.512 150.246 127.604 149.551 126.941C148.871 126.261 148.003 125.922 146.944 125.922C146.139 125.922 145.365 126.111 144.622 126.49C143.895 126.87 143.271 127.422 142.75 128.149C142.229 128.876 141.881 129.729 141.708 130.708C141.644 131.04 141.613 131.403 141.613 131.798C141.613 132.967 141.952 133.891 142.632 134.57C143.311 135.234 144.18 135.566 145.238 135.566C146.044 135.566 146.81 135.376 147.537 134.997C148.279 134.602 148.911 134.041 149.432 133.315C149.969 132.572 150.325 131.711 150.499 130.732ZM162.862 124.05C163.984 124.05 164.924 124.295 165.682 124.784C166.44 125.274 166.954 125.89 167.222 126.633L167.649 124.263H169.829L167.483 137.532C167.278 138.717 166.835 139.768 166.156 140.684C165.492 141.616 164.647 142.343 163.621 142.864C162.594 143.385 161.456 143.646 160.208 143.646C158.502 143.646 157.152 143.235 156.157 142.414C155.161 141.608 154.68 140.518 154.711 139.144H156.867C156.962 139.934 157.333 140.565 157.981 141.039C158.645 141.529 159.498 141.774 160.54 141.774C161.725 141.774 162.76 141.403 163.644 140.66C164.529 139.918 165.09 138.875 165.327 137.532L165.801 134.807C165.232 135.566 164.481 136.198 163.549 136.703C162.633 137.209 161.614 137.461 160.493 137.461C159.482 137.461 158.589 137.248 157.815 136.822C157.041 136.379 156.433 135.755 155.991 134.95C155.564 134.144 155.351 133.212 155.351 132.154C155.351 131.68 155.398 131.198 155.493 130.708C155.73 129.381 156.204 128.22 156.915 127.225C157.641 126.214 158.518 125.432 159.545 124.879C160.588 124.326 161.693 124.05 162.862 124.05ZM166.511 130.732C166.575 130.4 166.606 130.045 166.606 129.666C166.606 128.512 166.259 127.604 165.564 126.941C164.884 126.261 164.015 125.922 162.957 125.922C162.151 125.922 161.377 126.111 160.635 126.49C159.908 126.87 159.284 127.422 158.763 128.149C158.242 128.876 157.894 129.729 157.72 130.708C157.657 131.04 157.626 131.403 157.626 131.798C157.626 132.967 157.965 133.891 158.645 134.57C159.324 135.234 160.193 135.566 161.251 135.566C162.057 135.566 162.823 135.376 163.549 134.997C164.292 134.602 164.924 134.041 165.445 133.315C165.982 132.572 166.338 131.711 166.511 130.732ZM171.506 130.708C171.743 129.381 172.217 128.22 172.928 127.225C173.654 126.214 174.531 125.432 175.558 124.879C176.6 124.326 177.706 124.05 178.875 124.05C180.013 124.05 180.952 124.295 181.695 124.784C182.437 125.274 182.951 125.89 183.235 126.633L183.662 124.263H185.842L183.543 137.248H181.363L181.813 134.831C181.245 135.589 180.494 136.221 179.562 136.727C178.63 137.216 177.604 137.461 176.482 137.461C175.471 137.461 174.578 137.248 173.804 136.822C173.03 136.379 172.43 135.755 172.004 134.95C171.577 134.144 171.364 133.212 171.364 132.154C171.364 131.68 171.411 131.198 171.506 130.708ZM182.524 130.732C182.587 130.4 182.619 130.045 182.619 129.666C182.619 128.512 182.272 127.604 181.576 126.941C180.897 126.261 180.028 125.922 178.97 125.922C178.164 125.922 177.39 126.111 176.648 126.49C175.921 126.87 175.297 127.422 174.776 128.149C174.255 128.876 173.907 129.729 173.733 130.708C173.67 131.04 173.639 131.403 173.639 131.798C173.639 132.967 173.978 133.891 174.657 134.57C175.337 135.234 176.205 135.566 177.264 135.566C178.07 135.566 178.836 135.376 179.562 134.997C180.305 134.602 180.937 134.041 181.458 133.315C181.995 132.572 182.35 131.711 182.524 130.732ZM194.363 130.684C194.6 129.326 195.082 128.141 195.809 127.13C196.535 126.103 197.436 125.314 198.51 124.761C199.6 124.192 200.777 123.908 202.041 123.908C203.668 123.908 204.939 124.31 205.855 125.116C206.787 125.922 207.309 127.067 207.419 128.552H203.841C203.747 127.983 203.502 127.541 203.107 127.225C202.712 126.893 202.183 126.727 201.519 126.727C200.571 126.727 199.758 127.075 199.079 127.77C198.415 128.449 197.973 129.421 197.752 130.684C197.673 131.127 197.633 131.506 197.633 131.822C197.633 132.722 197.854 133.417 198.297 133.907C198.739 134.381 199.355 134.618 200.145 134.618C201.472 134.618 202.451 134.018 203.083 132.817H206.661C206.045 134.239 205.121 135.368 203.889 136.205C202.672 137.043 201.266 137.461 199.671 137.461C198.012 137.461 196.685 136.995 195.69 136.063C194.711 135.115 194.221 133.836 194.221 132.225C194.221 131.735 194.268 131.222 194.363 130.684ZM213.546 126.443C214.115 125.653 214.778 125.037 215.536 124.595C216.295 124.152 217.116 123.931 218.001 123.931L217.385 127.414H216.508C215.529 127.414 214.739 127.628 214.138 128.054C213.554 128.481 213.127 129.207 212.859 130.234L211.627 137.248H208.286L210.608 124.121H213.949L213.546 126.443ZM225.969 123.908C227.644 123.908 228.971 124.374 229.95 125.306C230.93 126.222 231.419 127.462 231.419 129.026C231.419 129.531 231.38 129.981 231.301 130.376C231.206 130.85 231.103 131.261 230.993 131.609H221.396C221.38 131.719 221.373 131.877 221.373 132.082C221.373 132.904 221.61 133.552 222.083 134.025C222.573 134.484 223.213 134.713 224.003 134.713C224.666 134.713 225.235 134.57 225.709 134.286C226.199 133.986 226.593 133.599 226.894 133.125H230.472C229.887 134.389 228.979 135.431 227.747 136.253C226.53 137.058 225.148 137.461 223.6 137.461C221.925 137.461 220.583 136.987 219.572 136.04C218.561 135.092 218.055 133.804 218.055 132.177C218.055 131.703 218.103 131.206 218.197 130.684C218.434 129.326 218.916 128.133 219.643 127.106C220.385 126.08 221.301 125.29 222.391 124.737C223.481 124.184 224.674 123.908 225.969 123.908ZM228.007 129.594C228.039 129.342 228.055 129.16 228.055 129.049C228.055 128.291 227.81 127.699 227.32 127.272C226.83 126.846 226.191 126.633 225.401 126.633C224.564 126.633 223.813 126.901 223.15 127.438C222.486 127.959 222.02 128.678 221.752 129.594H228.007ZM232.822 130.684C233.059 129.326 233.541 128.141 234.267 127.13C234.994 126.103 235.894 125.314 236.969 124.761C238.059 124.192 239.235 123.908 240.499 123.908C242.126 123.908 243.398 124.31 244.314 125.116C245.246 125.922 245.767 127.067 245.878 128.552H242.3C242.205 127.983 241.96 127.541 241.565 127.225C241.17 126.893 240.641 126.727 239.978 126.727C239.03 126.727 238.216 127.075 237.537 127.77C236.874 128.449 236.431 129.421 236.21 130.684C236.131 131.127 236.092 131.506 236.092 131.822C236.092 132.722 236.313 133.417 236.755 133.907C237.198 134.381 237.814 134.618 238.604 134.618C239.93 134.618 240.91 134.018 241.542 132.817H245.12C244.504 134.239 243.58 135.368 242.347 136.205C241.131 137.043 239.725 137.461 238.13 137.461C236.471 137.461 235.144 136.995 234.149 136.063C233.169 135.115 232.68 133.836 232.68 132.225C232.68 131.735 232.727 131.222 232.822 130.684ZM254.848 123.908C256.523 123.908 257.85 124.374 258.829 125.306C259.808 126.222 260.298 127.462 260.298 129.026C260.298 129.531 260.259 129.981 260.18 130.376C260.085 130.85 259.982 131.261 259.872 131.609H250.275C250.259 131.719 250.251 131.877 250.251 132.082C250.251 132.904 250.488 133.552 250.962 134.025C251.452 134.484 252.092 134.713 252.881 134.713C253.545 134.713 254.114 134.57 254.587 134.286C255.077 133.986 255.472 133.599 255.772 133.125H259.35C258.766 134.389 257.857 135.431 256.625 136.253C255.409 137.058 254.027 137.461 252.479 137.461C250.804 137.461 249.461 136.987 248.45 136.04C247.439 135.092 246.934 133.804 246.934 132.177C246.934 131.703 246.981 131.206 247.076 130.684C247.313 129.326 247.795 128.133 248.521 127.106C249.264 126.08 250.18 125.29 251.27 124.737C252.36 124.184 253.553 123.908 254.848 123.908ZM256.886 129.594C256.918 129.342 256.933 129.16 256.933 129.049C256.933 128.291 256.688 127.699 256.199 127.272C255.709 126.846 255.069 126.633 254.279 126.633C253.442 126.633 252.692 126.901 252.028 127.438C251.365 127.959 250.899 128.678 250.63 129.594H256.886ZM266.629 126.443C267.198 125.653 267.861 125.037 268.62 124.595C269.378 124.152 270.199 123.931 271.084 123.931L270.468 127.414H269.591C268.612 127.414 267.822 127.628 267.222 128.054C266.637 128.481 266.211 129.207 265.942 130.234L264.71 137.248H261.369L263.691 124.121H267.032L266.629 126.443ZM282.058 122.154C281.695 122.154 281.395 122.044 281.158 121.822C280.937 121.601 280.826 121.309 280.826 120.946C280.826 120.472 281 120.069 281.347 119.737C281.695 119.39 282.098 119.216 282.556 119.216C282.919 119.216 283.212 119.326 283.433 119.548C283.654 119.769 283.764 120.061 283.764 120.424C283.764 120.898 283.591 121.309 283.243 121.657C282.896 121.988 282.501 122.154 282.058 122.154ZM279.949 140.068C279.76 141.221 279.325 142.066 278.646 142.603C277.967 143.14 277.067 143.409 275.945 143.409H274.665L274.997 141.584H275.898C276.498 141.584 276.94 141.466 277.224 141.229C277.509 140.992 277.698 140.589 277.793 140.02L280.589 124.263H282.745L279.949 140.068ZM297.912 124.263L295.613 137.248H293.457L293.789 135.352C293.267 136.016 292.604 136.529 291.798 136.893C290.993 137.256 290.155 137.438 289.287 137.438C287.928 137.438 286.838 137.074 286.017 136.348C285.211 135.605 284.808 134.547 284.808 133.172C284.808 132.825 284.848 132.391 284.927 131.869L286.277 124.263H288.41L287.13 131.585C287.067 131.917 287.035 132.264 287.035 132.627C287.035 133.591 287.296 134.326 287.817 134.831C288.355 135.321 289.097 135.566 290.045 135.566C291.182 135.566 292.146 135.21 292.936 134.499C293.741 133.789 294.255 132.754 294.476 131.395V131.466L295.755 124.263H297.912ZM307.926 124.026C309.269 124.026 310.343 124.389 311.149 125.116C311.955 125.827 312.357 126.87 312.357 128.244C312.357 128.749 312.318 129.2 312.239 129.594L310.888 137.248H308.756L310.059 129.903C310.122 129.571 310.154 129.223 310.154 128.86C310.154 127.896 309.885 127.162 309.348 126.656C308.827 126.151 308.092 125.898 307.144 125.898C306.007 125.898 305.036 126.253 304.23 126.964C303.44 127.675 302.927 128.71 302.69 130.068V130.021L301.41 137.248H299.254L301.552 124.263H303.709L303.377 126.135C303.914 125.456 304.585 124.934 305.391 124.571C306.197 124.208 307.042 124.026 307.926 124.026ZM317.681 133.694C317.633 133.931 317.609 134.136 317.609 134.31C317.609 134.705 317.728 134.989 317.965 135.163C318.218 135.337 318.62 135.424 319.173 135.424H320.761L320.429 137.248H318.486C317.459 137.248 316.685 137.051 316.164 136.656C315.659 136.261 315.406 135.613 315.406 134.713C315.406 134.365 315.437 134.025 315.501 133.694L316.851 126.04H315.193L315.501 124.263H317.183L317.752 120.993H319.932L319.363 124.263H322.728L322.42 126.04H319.031L317.681 133.694ZM328.752 137.461C327.662 137.461 326.699 137.24 325.862 136.798C325.04 136.34 324.4 135.708 323.942 134.902C323.484 134.081 323.255 133.133 323.255 132.059C323.255 130.59 323.595 129.247 324.274 128.031C324.953 126.798 325.885 125.827 327.07 125.116C328.271 124.405 329.605 124.05 331.075 124.05C332.165 124.05 333.128 124.279 333.965 124.737C334.818 125.179 335.474 125.811 335.932 126.633C336.406 127.438 336.643 128.386 336.643 129.476C336.643 130.945 336.295 132.288 335.6 133.504C334.905 134.721 333.957 135.684 332.757 136.395C331.556 137.106 330.221 137.461 328.752 137.461ZM329.013 135.637C330.04 135.637 330.964 135.36 331.785 134.807C332.607 134.239 333.247 133.496 333.705 132.58C334.179 131.648 334.416 130.653 334.416 129.594C334.416 128.394 334.068 127.478 333.373 126.846C332.678 126.198 331.809 125.874 330.766 125.874C329.74 125.874 328.823 126.159 328.018 126.727C327.212 127.28 326.588 128.023 326.146 128.955C325.704 129.887 325.482 130.89 325.482 131.964C325.482 133.133 325.814 134.041 326.478 134.689C327.141 135.321 327.986 135.637 329.013 135.637ZM342.772 137.461C341.413 137.461 340.299 137.137 339.431 136.49C338.562 135.842 338.127 134.973 338.127 133.883C338.127 133.678 338.135 133.528 338.151 133.433H340.26C340.197 134.112 340.394 134.665 340.852 135.092C341.326 135.518 342.006 135.732 342.89 135.732C343.775 135.732 344.486 135.566 345.023 135.234C345.576 134.886 345.852 134.405 345.852 133.789C345.852 133.267 345.631 132.857 345.189 132.556C344.746 132.256 344.067 131.932 343.151 131.585C342.345 131.285 341.682 131 341.16 130.732C340.639 130.463 340.197 130.092 339.833 129.618C339.47 129.128 339.288 128.512 339.288 127.77C339.288 127.043 339.494 126.396 339.905 125.827C340.331 125.258 340.916 124.824 341.658 124.524C342.416 124.208 343.277 124.05 344.241 124.05C345.568 124.05 346.658 124.381 347.511 125.045C348.364 125.708 348.79 126.577 348.79 127.651C348.79 127.857 348.782 128.015 348.767 128.125H346.705L346.729 127.841C346.729 127.209 346.484 126.712 345.994 126.348C345.52 125.969 344.888 125.78 344.099 125.78C343.325 125.78 342.685 125.953 342.179 126.301C341.69 126.648 341.445 127.114 341.445 127.699C341.445 128.252 341.674 128.686 342.132 129.002C342.59 129.318 343.301 129.666 344.264 130.045C345.07 130.361 345.718 130.653 346.208 130.921C346.697 131.174 347.116 131.53 347.463 131.988C347.811 132.446 347.985 133.022 347.985 133.717C347.985 134.476 347.756 135.139 347.297 135.708C346.855 136.277 346.239 136.711 345.449 137.011C344.659 137.311 343.767 137.461 342.772 137.461Z" fill="#BAB9B9"/>
<path d="M58.8447 59.4317C58.7327 59.9764 58.6207 60.5266 58.5088 61.0713C55.7041 61.5381 52.8882 61.8494 50.0723 62.0217C53.0617 61.2158 55.9896 60.3654 58.8447 59.4317Z" fill="#FF6720"/>
<path d="M121.573 5.88083C113.545 27.9457 97.0187 47.8652 74.7155 56.6189C74.7155 56.6189 75.6112 52.2448 75.6168 52.2448C93.7214 41.9405 106.077 23.4883 111.07 3.69102C112.834 2.73506 117.648 0.00613403 117.648 0.00613403C117.648 0.00613403 120.19 3.75216 121.573 5.88083Z" fill="#FF6720"/>
<path d="M83.585 13.462C83.7474 12.6617 83.9993 12.1615 84.9118 12.0948C88.8193 11.7891 92.7213 11.1611 96.6176 11.1944C101.432 11.2277 104.617 14.6014 105.244 19.7147C107.724 14.5736 109.673 9.19912 111.067 3.69124C110.999 3.64122 110.932 3.59676 110.865 3.5523C107.019 0.945643 102.625 0.245348 98.1124 0.0563798C88.8921 -0.343789 79.963 1.43474 71.1402 3.85242C70.67 3.98581 70.1269 4.69722 70.015 5.22522C69.2368 8.99348 55.4484 76.0662 55.4484 76.0662H65.7659C68.6714 76.0662 71.1626 73.843 71.7504 70.9863C71.756 70.9974 82.9132 16.7579 83.585 13.462Z" fill="#BAB9B9"/>
<path d="M118.54 13.2505C110.322 31.0302 96.5219 46.6535 78.6077 54.957C107.623 63.1882 126.719 34.8374 118.54 13.2505Z" fill="#BAB9B9"/>
<path d="M51.852 27.3956C30.7803 7.18152 -5.1434 30.2523 0.617161 57.7417C4.20002 74.8433 22.8421 78.6394 37.9292 74.6044C47.5022 72.0477 46.3601 62.8272 46.3601 62.8272C34.352 65.5839 11.5001 63.1051 13.3755 53.9957C22.6125 56.569 36.692 57.1804 46.5729 52.1393C59.4656 45.5588 57.2655 33.4315 51.852 27.3956ZM43.018 38.9171C39.799 45.5143 21.4033 45.4588 14.7806 43.5302C18.9345 34.1707 29.8566 28.5794 39.8718 32.6311C42.8949 33.8594 44.2384 36.3938 43.018 38.9171Z" fill="#BAB9B9"/>
<path d="M183.113 23.9608C174.189 21.054 163.485 19.7201 155.648 19.7201C134.906 19.7201 121.851 38.2557 122.462 54.5181C122.697 60.7596 124.807 74.9267 143.802 76.5552C149.076 77.0054 154.108 76.3328 158.514 73.0982C158.548 73.0704 158.856 72.798 158.783 73.1871C158.626 74.093 158.273 76.0827 158.273 76.0827C158.273 76.0827 168.177 76.0827 172.874 76.0827C173.758 76.0827 173.881 75.4769 174.01 74.86C177.386 58.4642 180.784 42.1018 184.12 25.6949C184.333 24.6611 184.126 24.2832 183.113 23.9608ZM167.018 33.7316C165.238 42.1851 163.513 50.6498 161.716 59.1089C161.56 59.837 161.179 60.4984 160.619 60.9931C156.353 64.7613 151.382 66.0007 145.829 64.7335C135.181 62.3047 136.927 47.3151 140.656 40.0843C144.054 33.5037 151.735 29.7855 159.555 30.7915C167.382 31.7919 167.219 32.7478 167.018 33.7316Z" fill="#BAB9B9"/>
<path d="M354.106 39.5007C353.014 26.5619 342.724 19.7201 330.375 19.7201C304.477 19.7201 295.923 41.2014 296.713 56.1299C297.468 70.4637 310.238 77.1387 323.103 75.9438C335.055 75.2379 344.034 69.819 349.588 59.2034C352.801 53.0508 354.884 46.5648 354.106 39.5007ZM318.389 63.8109C306.991 61.4822 310.854 46.5147 313.233 42.1018C318.977 31.4417 326.803 30.9526 331.254 31.6529C337.132 32.57 340.468 36.7384 340.138 43.7803C339.64 54.4403 331.651 66.5176 318.389 63.8109Z" fill="#BAB9B9"/>
<path d="M180.929 100.215L182.861 90.8113C183.152 89.7109 184.199 88.9272 185.346 88.8939C191.135 88.7327 193.117 87.7323 196.011 84.6087C198.222 81.8187 199.896 79.5788 201.755 77C202.001 76.6609 202.023 76.0551 201.934 75.6105C198.799 59.8094 190.889 19.7203 190.889 19.7203C190.889 19.7203 205.31 19.5925 206.216 25.3393C207.958 36.3439 212.078 58.5922 212.274 59.4704C212.783 58.5978 226.269 35.6103 232.578 24.589C235.674 19.1812 247.47 19.7203 251.366 19.7203C239.739 39.0117 217.155 76.4219 213.634 82.2355C204.487 97.3196 196.436 100.332 188.006 100.226C185.71 100.199 180.929 100.215 180.929 100.215Z" fill="#BAB9B9"/>
<path d="M287.778 60.5373C286.96 64.5001 285.477 71.7087 285.427 71.9644C285.343 72.3868 285.163 72.8536 284.598 73.0648C276.811 75.9549 268.498 77.3166 260.934 74.6544C236.459 66.0508 243.031 27.0066 268.593 20.7928C281.144 17.7416 293.662 22.1601 294.272 22.349C294.983 22.5714 295.425 23.2828 295.279 24.0053C294.837 26.1784 293.432 33.0591 293.37 33.3092C286.289 31.036 278.849 29.3909 271.616 31.9142C257.24 36.9385 254.116 61.4266 268.414 64.2945C275.266 65.6728 281.536 63.2607 287.778 60.5373Z" fill="#BAB9B9"/>
</svg>
